<svg width="49" height="48" viewBox="0 0 49 48" fill="none" xmlns="http://www.w3.org/2000/svg">
<path d="M24.9235 12C18.3079 12 12.9235 17.3844 12.9235 24C12.9235 30.6156 18.3079 36 24.9235 36C31.539 36 36.9235 30.6156 36.9235 24C36.9235 17.3844 31.539 12 24.9235 12ZM24.9235 14C30.4582 14 34.9235 18.4653 34.9235 24C34.9235 29.0274 31.2351 33.1613 26.4117 33.8789V26.916H29.2594L29.7067 24.0234H26.4117V22.4434C26.4117 21.2424 26.8063 20.1758 27.9293 20.1758H29.734V17.6523C29.417 17.6093 28.7461 17.5156 27.4781 17.5156C24.8301 17.5156 23.2789 18.9136 23.2789 22.0996V24.0234H20.5563V26.916H23.2789V33.8535C18.5323 33.0706 14.9235 28.973 14.9235 24C14.9235 18.4653 19.3888 14 24.9235 14Z" fill="white"/>
</svg>
