<svg width="49" height="48" viewBox="0 0 49 48" fill="none" xmlns="http://www.w3.org/2000/svg">
<path d="M20.3922 13C16.8414 13 13.9235 15.9141 13.9235 19.4688V28.5312C13.9235 32.082 16.8375 35 20.3922 35H29.4547C33.0055 35 35.9235 32.0859 35.9235 28.5312V19.4688C35.9235 15.918 33.0094 13 29.4547 13H20.3922ZM20.3922 15H29.4547C31.9274 15 33.9235 16.9961 33.9235 19.4688V28.5312C33.9235 31.0039 31.9274 33 29.4547 33H20.3922C17.9196 33 15.9235 31.0039 15.9235 28.5312V19.4688C15.9235 16.9961 17.9196 15 20.3922 15ZM30.8297 17.1875C30.3258 17.1875 29.9235 17.5898 29.9235 18.0938C29.9235 18.5977 30.3258 19 30.8297 19C31.3336 19 31.736 18.5977 31.736 18.0938C31.736 17.5898 31.3336 17.1875 30.8297 17.1875ZM24.9235 18C21.6227 18 18.9235 20.6992 18.9235 24C18.9235 27.3008 21.6227 30 24.9235 30C28.2242 30 30.9235 27.3008 30.9235 24C30.9235 20.6992 28.2242 18 24.9235 18ZM24.9235 20C27.1461 20 28.9235 21.7773 28.9235 24C28.9235 26.2227 27.1461 28 24.9235 28C22.7008 28 20.9235 26.2227 20.9235 24C20.9235 21.7773 22.7008 20 24.9235 20Z" fill="white"/>
</svg>
