<svg width="49" height="48" viewBox="0 0 49 48" fill="none" xmlns="http://www.w3.org/2000/svg">
<path d="M13.9235 13V35H35.9235V13H13.9235ZM15.9235 15H33.9235V33H15.9235V15ZM27.6129 18.6289C25.8629 18.6289 24.4051 20.2073 24.8121 22.1543C22.4321 22.0323 20.3111 20.8953 18.8981 19.1543C18.6491 19.5783 18.5094 20.0676 18.5094 20.6016C18.5084 21.5616 18.9877 22.4582 19.7867 22.9902C19.3187 22.9732 18.8728 22.8429 18.4918 22.6289V22.6621C18.4918 24.0571 19.4757 25.2135 20.7887 25.4805C20.3337 25.5995 19.9358 25.5992 19.4938 25.5332C19.8568 26.6712 20.9154 27.4974 22.1754 27.5234C21.1914 28.2934 19.9579 28.748 18.6149 28.748C18.3789 28.748 18.1555 28.7408 17.9235 28.7148C19.1925 29.5288 20.7017 30 22.3297 30C27.6057 30 30.4938 25.6289 30.4938 21.8359C30.4938 21.7129 30.493 21.5878 30.484 21.4648C31.044 21.0578 31.5335 20.5496 31.9215 19.9766C31.4055 20.1996 30.8472 20.3628 30.2692 20.4238C30.8642 20.0698 31.3149 19.5088 31.5289 18.8438C30.9779 19.1718 30.3556 19.4122 29.7086 19.5352C29.1836 18.9752 28.4399 18.6289 27.6129 18.6289Z" fill="white"/>
</svg>
