<svg width="49" height="48" viewBox="0 0 49 48" fill="none" xmlns="http://www.w3.org/2000/svg">
<path d="M24.9235 14C21.1578 14 17.8297 14.3906 15.7985 14.6875C14.1188 14.9336 12.7633 16.1992 12.4547 17.875C12.193 19.3008 11.9235 21.3867 11.9235 24C11.9235 26.6133 12.193 28.6992 12.4547 30.125C12.7633 31.8008 14.1188 33.0703 15.7985 33.3125C17.8375 33.6094 21.1774 34 24.9235 34C28.6696 34 32.0094 33.6094 34.0485 33.3125C35.7281 33.0703 37.0836 31.8008 37.3922 30.125C37.6539 28.6953 37.9235 26.6055 37.9235 24C37.9235 21.3945 37.6578 19.3047 37.3922 17.875C37.0836 16.1992 35.7281 14.9336 34.0485 14.6875C32.0172 14.3906 28.6891 14 24.9235 14ZM24.9235 16C28.5563 16 31.8024 16.3711 33.7672 16.6562C34.611 16.7812 35.2711 17.418 35.4235 18.25C35.6656 19.5703 35.9235 21.5273 35.9235 24C35.9235 26.4688 35.6656 28.4297 35.4235 29.75C35.2711 30.582 34.6149 31.2227 33.7672 31.3438C31.7946 31.6289 28.5328 32 24.9235 32C21.3141 32 18.0485 31.6289 16.0797 31.3438C15.236 31.2227 14.5758 30.582 14.4235 29.75C14.1813 28.4297 13.9235 26.4766 13.9235 24C13.9235 21.5195 14.1813 19.5703 14.4235 18.25C14.5758 17.418 15.2321 16.7812 16.0797 16.6562C18.0406 16.3711 21.2906 16 24.9235 16ZM21.9235 18.2812V29.7188L23.4235 28.875L30.4235 24.875L31.9235 24L30.4235 23.125L23.4235 19.125L21.9235 18.2812ZM23.9235 21.7188L27.8922 24L23.9235 26.2812V21.7188Z" fill="white"/>
</svg>
